<?xml version="1.0" encoding="UTF-8"?>
<!DOCTYPE svg PUBLIC "-//W3C//DTD SVG 1.1//EN" "http://www.w3.org/Graphics/SVG/1.1/DTD/svg11.dtd">
<svg xmlns="http://www.w3.org/2000/svg" version="1.1" width="1024px" height="1024px" style="shape-rendering:geometricPrecision; text-rendering:geometricPrecision; image-rendering:optimizeQuality; fill-rule:evenodd; clip-rule:evenodd" xmlns:xlink="http://www.w3.org/1999/xlink">
<g><path style="opacity:1" fill="#fbfbfb" d="M -0.5,-0.5 C 340.833,-0.5 682.167,-0.5 1023.5,-0.5C 1023.5,340.833 1023.5,682.167 1023.5,1023.5C 682.167,1023.5 340.833,1023.5 -0.5,1023.5C -0.5,682.167 -0.5,340.833 -0.5,-0.5 Z"/></g>
<g><path style="opacity:1" fill="#c4e5ab" d="M 309.5,415.5 C 308.54,427.783 308.206,440.117 308.5,452.5C 307.508,452.672 306.842,452.338 306.5,451.5C 307.331,440.007 307.831,428.341 308,416.5C 308.383,415.944 308.883,415.611 309.5,415.5 Z"/></g>
<g><path style="opacity:1" fill="#86c44a" d="M 336.5,435.5 C 342.209,440.879 347.209,446.879 351.5,453.5C 351.5,454.167 351.5,454.833 351.5,455.5C 351.762,456.978 351.429,458.311 350.5,459.5C 349.575,460.641 348.741,460.641 348,459.5C 347.177,463.915 346.01,464.248 344.5,460.5C 340.419,462.118 337.252,464.785 335,468.5C 334.293,466.919 333.46,465.419 332.5,464C 333.167,463.667 333.833,463.333 334.5,463C 332.874,460.372 330.874,458.039 328.5,456C 329.354,454.119 329.021,452.286 327.5,450.5C 328.167,449.833 328.833,449.167 329.5,448.5C 326.387,444.608 324.053,440.274 322.5,435.5C 314.415,436.891 310.582,433.558 311,425.5C 311.75,424.874 312.584,424.374 313.5,424C 312.167,423.333 312.167,422.667 313.5,422C 312.833,421.667 312.167,421.333 311.5,421C 312.64,419.027 313.973,417.193 315.5,415.5C 318.078,419.071 320.745,422.571 323.5,426C 324.76,427.113 325.927,427.28 327,426.5C 329.53,429.063 331.697,431.897 333.5,435C 334.448,435.483 335.448,435.649 336.5,435.5 Z"/></g>
<g><path style="opacity:1" fill="#2f7aad" d="M 281.5,432.5 C 284.007,435.255 285.007,438.588 284.5,442.5C 284.167,444.833 283.833,447.167 283.5,449.5C 281.807,451.027 279.973,452.36 278,453.5C 277.501,459.157 277.334,464.824 277.5,470.5C 276.833,470.5 276.167,470.5 275.5,470.5C 275.169,462.14 275.502,453.807 276.5,445.5C 278.72,443.337 279.053,440.837 277.5,438C 270.75,436.531 268.75,439.031 271.5,445.5C 271.217,446.289 270.717,446.956 270,447.5C 269.784,445.616 269.117,443.949 268,442.5C 267.383,443.449 267.549,444.282 268.5,445C 267.692,445.308 267.025,445.808 266.5,446.5C 266.589,453.319 266.589,460.319 266.5,467.5C 265.671,460.679 265.171,453.679 265,446.5C 262.453,444.367 261.287,441.534 261.5,438C 261.501,433.476 262.334,429.309 264,425.5C 259.946,422.309 257.113,423.142 255.5,428C 257.926,433.156 259.092,438.656 259,444.5C 260.154,445.743 261.488,446.743 263,447.5C 263.333,454.5 263.667,461.5 264,468.5C 266.741,470.067 267.908,472.401 267.5,475.5C 266.833,475.5 266.167,475.5 265.5,475.5C 263.205,472.703 260.705,470.036 258,467.5C 258.193,463.028 258.86,458.694 260,454.5C 258.556,452.845 256.722,452.178 254.5,452.5C 254.827,447.786 254.493,443.12 253.5,438.5C 250.106,436.891 248.773,434.224 249.5,430.5C 252.14,423.36 256.974,418.36 264,415.5C 266.032,415.858 267.866,416.692 269.5,418C 272.987,423.315 276.987,428.148 281.5,432.5 Z"/></g>
<g><path style="opacity:1" fill="#cbeff8" d="M 266.5,467.5 C 268.972,468.642 269.972,470.642 269.5,473.5C 268.833,474.167 268.167,474.833 267.5,475.5C 267.908,472.401 266.741,470.067 264,468.5C 263.667,461.5 263.333,454.5 263,447.5C 261.488,446.743 260.154,445.743 259,444.5C 259.092,438.656 257.926,433.156 255.5,428C 257.113,423.142 259.946,422.309 264,425.5C 262.334,429.309 261.501,433.476 261.5,438C 261.287,441.534 262.453,444.367 265,446.5C 265.171,453.679 265.671,460.679 266.5,467.5 Z"/></g>
<g><path style="opacity:1" fill="#447ba2" d="M 258.5,425.5 C 259.5,425.5 260.5,425.5 261.5,425.5C 261.5,426.833 261.5,428.167 261.5,429.5C 260.5,429.5 259.5,429.5 258.5,429.5C 258.5,428.167 258.5,426.833 258.5,425.5 Z"/></g>
<g><path style="opacity:1" fill="#cfedf6" d="M 281.5,432.5 C 284.542,433.203 286.209,435.203 286.5,438.5C 286.271,442.588 285.604,446.755 284.5,451C 285.825,456.932 285.825,462.766 284.5,468.5C 284.828,463.125 284.495,457.792 283.5,452.5C 282.712,453.77 281.712,454.77 280.5,455.5C 279.514,459.97 279.181,464.637 279.5,469.5C 278.833,469.833 278.167,470.167 277.5,470.5C 277.334,464.824 277.501,459.157 278,453.5C 279.973,452.36 281.807,451.027 283.5,449.5C 283.833,447.167 284.167,444.833 284.5,442.5C 285.007,438.588 284.007,435.255 281.5,432.5 Z"/></g>
<g><path style="opacity:1" fill="#2b6fa7" d="M 242.5,436.5 C 245.862,436.07 248.695,437.07 251,439.5C 251.333,445.833 251.667,452.167 252,458.5C 253,459.5 254,460.5 255,461.5C 255.206,464.623 255.873,467.623 257,470.5C 259.4,472.729 261.567,475.063 263.5,477.5C 263.167,478.167 262.833,478.833 262.5,479.5C 261.448,479.649 260.448,479.483 259.5,479C 255.985,475.318 252.318,471.818 248.5,468.5C 248.167,466.5 247.833,464.5 247.5,462.5C 247.931,458.491 248.764,454.825 250,451.5C 247.17,448.899 244.337,448.899 241.5,451.5C 240.694,452.997 240.028,454.664 239.5,456.5C 243.355,459.468 244.188,463.135 242,467.5C 241.184,466.177 240.017,465.511 238.5,465.5C 236.897,464.404 235.397,463.07 234,461.5C 233.501,456.177 233.334,450.844 233.5,445.5C 235.472,441.528 238.472,438.528 242.5,436.5 Z"/></g>
<g><path style="opacity:1" fill="#bce4f2" d="M 275.5,470.5 C 274.222,470.782 273.222,471.449 272.5,472.5C 272.827,463.318 272.493,454.318 271.5,445.5C 268.75,439.031 270.75,436.531 277.5,438C 279.053,440.837 278.72,443.337 276.5,445.5C 275.502,453.807 275.169,462.14 275.5,470.5 Z"/></g>
<g><path style="opacity:1" fill="#3a759c" d="M 273.5,439.5 C 274.5,439.5 275.5,439.5 276.5,439.5C 276.5,440.5 276.5,441.5 276.5,442.5C 275.5,442.5 274.5,442.5 273.5,442.5C 273.5,441.5 273.5,440.5 273.5,439.5 Z"/></g>
<g><path style="opacity:1" fill="#c8eaf5" d="M 249.5,430.5 C 248.773,434.224 250.106,436.891 253.5,438.5C 254.493,443.12 254.827,447.786 254.5,452.5C 256.722,452.178 258.556,452.845 260,454.5C 258.86,458.694 258.193,463.028 258,467.5C 260.705,470.036 263.205,472.703 265.5,475.5C 264.5,475.833 263.833,476.5 263.5,477.5C 261.567,475.063 259.4,472.729 257,470.5C 255.873,467.623 255.206,464.623 255,461.5C 254,460.5 253,459.5 252,458.5C 251.667,452.167 251.333,445.833 251,439.5C 248.695,437.07 245.862,436.07 242.5,436.5C 244.265,435.539 246.265,435.205 248.5,435.5C 248.216,433.585 248.549,431.919 249.5,430.5 Z"/></g>
<g><path style="opacity:1" fill="#3b6d99" d="M 254.5,455.5 C 255.5,455.5 256.5,455.5 257.5,455.5C 257.762,456.978 257.429,458.311 256.5,459.5C 254.889,458.68 254.222,457.346 254.5,455.5 Z"/></g>
<g><path style="opacity:1" fill="#225d95" d="M 271.5,445.5 C 272.493,454.318 272.827,463.318 272.5,472.5C 271.609,473.11 270.609,473.443 269.5,473.5C 269.972,470.642 268.972,468.642 266.5,467.5C 266.589,460.319 266.589,453.319 266.5,446.5C 267.025,445.808 267.692,445.308 268.5,445C 267.549,444.282 267.383,443.449 268,442.5C 269.117,443.949 269.784,445.616 270,447.5C 270.717,446.956 271.217,446.289 271.5,445.5 Z"/></g>
<g><path style="opacity:1" fill="#326f99" d="M 284.5,468.5 C 283.833,468.5 283.167,468.5 282.5,468.5C 280.57,464.627 279.903,460.294 280.5,455.5C 281.712,454.77 282.712,453.77 283.5,452.5C 284.495,457.792 284.828,463.125 284.5,468.5 Z"/></g>
<g><path style="opacity:1" fill="#93c0dc" d="M 280.5,455.5 C 279.903,460.294 280.57,464.627 282.5,468.5C 281.791,469.404 280.791,469.737 279.5,469.5C 279.181,464.637 279.514,459.97 280.5,455.5 Z"/></g>
<g><path style="opacity:1" fill="#326598" d="M 255.5,487.5 C 255.5,487.833 255.5,488.167 255.5,488.5C 254.85,488.804 254.183,489.137 253.5,489.5C 245.048,482.55 237.048,475.05 229.5,467C 226.518,466.502 223.518,466.335 220.5,466.5C 219.978,461.549 221.645,457.549 225.5,454.5C 227.142,452.919 229.142,452.253 231.5,452.5C 231.335,455.85 231.502,459.183 232,462.5C 239.7,471.031 247.533,479.364 255.5,487.5 Z"/></g>
<g><path style="opacity:1" fill="#d3eef8" d="M 262.5,479.5 C 261.791,480.404 260.791,480.737 259.5,480.5C 259.737,481.791 259.404,482.791 258.5,483.5C 254.917,478.246 250.584,473.58 245.5,469.5C 244.788,463.165 243.455,457.165 241.5,451.5C 244.337,448.899 247.17,448.899 250,451.5C 248.764,454.825 247.931,458.491 247.5,462.5C 247.833,464.5 248.167,466.5 248.5,468.5C 252.318,471.818 255.985,475.318 259.5,479C 260.448,479.483 261.448,479.649 262.5,479.5 Z"/></g>
<g><path style="opacity:1" fill="#527ea3" d="M 244.5,451.5 C 245.5,451.5 246.5,451.5 247.5,451.5C 247.426,455.541 246.093,456.208 243.5,453.5C 243.863,452.817 244.196,452.15 244.5,451.5 Z"/></g>
<g><path style="opacity:1" fill="#7fbd4e" d="M 336.5,435.5 C 335.448,435.649 334.448,435.483 333.5,435C 331.697,431.897 329.53,429.063 327,426.5C 325.927,427.28 324.76,427.113 323.5,426C 320.745,422.571 318.078,419.071 315.5,415.5C 313.973,417.193 312.64,419.027 311.5,421C 312.167,421.333 312.833,421.667 313.5,422C 312.167,422.667 312.167,423.333 313.5,424C 312.584,424.374 311.75,424.874 311,425.5C 310.582,433.558 314.415,436.891 322.5,435.5C 324.053,440.274 326.387,444.608 329.5,448.5C 328.833,449.167 328.167,449.833 327.5,450.5C 329.021,452.286 329.354,454.119 328.5,456C 330.874,458.039 332.874,460.372 334.5,463C 333.833,463.333 333.167,463.667 332.5,464C 333.46,465.419 334.293,466.919 335,468.5C 337.252,464.785 340.419,462.118 344.5,460.5C 346.01,464.248 347.177,463.915 348,459.5C 348.741,460.641 349.575,460.641 350.5,459.5C 351.429,458.311 351.762,456.978 351.5,455.5C 352.643,455.908 353.643,456.575 354.5,457.5C 358.376,463.331 361.709,469.331 364.5,475.5C 364.993,477.806 365.326,480.139 365.5,482.5C 366.014,484.512 366.18,486.512 366,488.5C 361.712,495.418 356.712,501.751 351,507.5C 350.601,507.272 350.435,506.938 350.5,506.5C 346.044,496.966 341.71,487.299 337.5,477.5C 329.076,467.028 319.409,458.695 308.5,452.5C 308.206,440.117 308.54,427.783 309.5,415.5C 311.878,413.082 314.545,412.915 317.5,415C 324.407,421.403 330.74,428.236 336.5,435.5 Z"/></g>
<g><path style="opacity:1" fill="#ebfadf" d="M 351.5,453.5 C 353.787,454.619 355.621,456.285 357,458.5C 360.252,463.852 362.752,469.519 364.5,475.5C 361.709,469.331 358.376,463.331 354.5,457.5C 353.643,456.575 352.643,455.908 351.5,455.5C 351.5,454.833 351.5,454.167 351.5,453.5 Z"/></g>
<g><path style="opacity:1" fill="#c8c8c9" d="M 573.5,462.5 C 574.167,472.5 574.833,482.5 575.5,492.5C 575.44,493.043 575.107,493.376 574.5,493.5C 573.501,483.188 573.168,472.855 573.5,462.5 Z"/></g>
<g><path style="opacity:1" fill="#d8f2fa" d="M 225.5,454.5 C 221.645,457.549 219.978,461.549 220.5,466.5C 223.518,466.335 226.518,466.502 229.5,467C 237.048,475.05 245.048,482.55 253.5,489.5C 254.183,489.137 254.85,488.804 255.5,488.5C 254.878,490.122 253.878,491.455 252.5,492.5C 251.432,491.566 250.099,491.232 248.5,491.5C 244.486,491.666 240.486,491.499 236.5,491C 233.268,487.938 230.268,484.771 227.5,481.5C 221.5,480.833 215.5,480.167 209.5,479.5C 205.833,478.833 202.167,478.167 198.5,477.5C 202.514,477.666 206.514,477.499 210.5,477C 209.376,476.751 208.376,476.251 207.5,475.5C 208.861,473.972 210.028,472.305 211,470.5C 212.011,471.337 213.178,471.67 214.5,471.5C 213.011,473.645 212.011,475.978 211.5,478.5C 217.792,477.947 223.792,478.614 229.5,480.5C 232.638,482.807 235.305,485.641 237.5,489C 241.167,489.667 244.833,489.667 248.5,489C 241.833,482.333 235.167,475.667 228.5,469C 225.518,468.502 222.518,468.335 219.5,468.5C 218.224,464.675 218.224,461.175 219.5,458C 220.45,455.09 222.45,453.923 225.5,454.5 Z"/></g>
<g><path style="opacity:1" fill="#eaf7e2" d="M 303.5,450.5 C 296.335,449.497 293.502,452.497 295,459.5C 298.773,462.764 301.94,466.43 304.5,470.5C 300.584,470.723 298.084,469.056 297,465.5C 296.346,466.696 295.846,466.696 295.5,465.5C 296.633,462.744 295.633,460.911 292.5,460C 292.693,458.355 292.86,456.521 293,454.5C 293.273,452.671 294.107,451.171 295.5,450C 298.367,449.199 301.034,449.366 303.5,450.5 Z"/></g>
<g><path style="opacity:1" fill="#929292" d="M 437.5,466.5 C 427.833,466.5 418.167,466.5 408.5,466.5C 408.5,483.833 408.5,501.167 408.5,518.5C 419.167,518.5 429.833,518.5 440.5,518.5C 429.679,519.495 418.679,519.828 407.5,519.5C 407.5,501.5 407.5,483.5 407.5,465.5C 417.681,465.173 427.681,465.506 437.5,466.5 Z"/></g>
<g><path style="opacity:1" fill="#66ac4e" d="M 303.5,450.5 C 304.209,451.404 305.209,451.737 306.5,451.5C 306.842,452.338 307.508,452.672 308.5,452.5C 319.409,458.695 329.076,467.028 337.5,477.5C 341.71,487.299 346.044,496.966 350.5,506.5C 346.819,506.718 346.152,507.884 348.5,510C 347.584,510.278 346.918,510.778 346.5,511.5C 332.527,497.861 318.527,484.194 304.5,470.5C 301.94,466.43 298.773,462.764 295,459.5C 293.502,452.497 296.335,449.497 303.5,450.5 Z"/></g>
<g><path style="opacity:1" fill="#32618f" d="M 241.5,451.5 C 243.455,457.165 244.788,463.165 245.5,469.5C 250.584,473.58 254.917,478.246 258.5,483.5C 258.5,484.167 258.167,484.5 257.5,484.5C 250.188,479.188 243.854,472.854 238.5,465.5C 240.017,465.511 241.184,466.177 242,467.5C 244.188,463.135 243.355,459.468 239.5,456.5C 240.028,454.664 240.694,452.997 241.5,451.5 Z"/></g>
<g><path style="opacity:1" fill="#a3a3a3" d="M 563.5,462.5 C 563.5,481.167 563.5,499.833 563.5,518.5C 566.833,518.5 570.167,518.5 573.5,518.5C 573.185,514.629 573.518,510.962 574.5,507.5C 574.5,511.5 574.5,515.5 574.5,519.5C 570.5,519.5 566.5,519.5 562.5,519.5C 562.17,500.326 562.503,481.326 563.5,462.5 Z"/></g>
<g><path style="opacity:1" fill="#467196" d="M 216.5,470.5 C 216.038,472.757 215.038,474.757 213.5,476.5C 218.792,477.495 224.125,477.828 229.5,477.5C 229.5,478.5 229.5,479.5 229.5,480.5C 223.792,478.614 217.792,477.947 211.5,478.5C 212.011,475.978 213.011,473.645 214.5,471.5C 215.167,471.167 215.833,470.833 216.5,470.5 Z"/></g>
<g><path style="opacity:1" fill="#242526" d="M 437.5,466.5 C 451.643,468.471 455.476,475.805 449,488.5C 447.745,489.211 446.579,490.044 445.5,491C 453.305,494.781 456.138,500.947 454,509.5C 451.262,515.06 446.762,518.06 440.5,518.5C 429.833,518.5 419.167,518.5 408.5,518.5C 408.5,501.167 408.5,483.833 408.5,466.5C 418.167,466.5 427.833,466.5 437.5,466.5 Z"/></g>
<g><path style="opacity:1" fill="#f8f9f9" d="M 418.5,474.5 C 424.509,474.334 430.509,474.501 436.5,475C 440.292,477.053 441.458,480.219 440,484.5C 439.097,485.701 437.931,486.535 436.5,487C 430.509,487.499 424.509,487.666 418.5,487.5C 418.5,483.167 418.5,478.833 418.5,474.5 Z"/></g>
<g><path style="opacity:1" fill="#3f5a84" d="M 198.5,477.5 C 202.167,478.167 205.833,478.833 209.5,479.5C 208.833,479.5 208.5,479.833 208.5,480.5C 202.438,480.162 196.771,480.996 191.5,483C 187.833,477 189.5,474.333 196.5,475C 197.381,475.708 198.047,476.542 198.5,477.5 Z"/></g>
<g><path style="opacity:1" fill="#cfeaf4" d="M 192.5,476.5 C 195.5,476.167 196.833,477.5 196.5,480.5C 195.167,480.5 193.833,480.5 192.5,480.5C 192.5,479.167 192.5,477.833 192.5,476.5 Z"/></g>
<g><path style="opacity:1" fill="#77a0be" d="M 209.5,479.5 C 215.5,480.167 221.5,480.833 227.5,481.5C 223.5,481.5 219.5,481.5 215.5,481.5C 213.167,481.5 210.833,481.5 208.5,481.5C 208.5,481.167 208.5,480.833 208.5,480.5C 208.5,479.833 208.833,479.5 209.5,479.5 Z"/></g>
<g><path style="opacity:1" fill="#2c5d99" d="M 219.5,468.5 C 222.518,468.335 225.518,468.502 228.5,469C 235.167,475.667 241.833,482.333 248.5,489C 244.833,489.667 241.167,489.667 237.5,489C 235.305,485.641 232.638,482.807 229.5,480.5C 229.5,479.5 229.5,478.5 229.5,477.5C 224.125,477.828 218.792,477.495 213.5,476.5C 215.038,474.757 216.038,472.757 216.5,470.5C 216.973,469.094 217.973,468.427 219.5,468.5 Z"/></g>
<g><path style="opacity:1" fill="#d4f1fa" d="M 233.5,445.5 C 233.334,450.844 233.501,456.177 234,461.5C 235.397,463.07 236.897,464.404 238.5,465.5C 243.854,472.854 250.188,479.188 257.5,484.5C 257.068,485.71 256.401,486.71 255.5,487.5C 247.533,479.364 239.7,471.031 232,462.5C 231.502,459.183 231.335,455.85 231.5,452.5C 229.142,452.253 227.142,452.919 225.5,454.5C 225.238,453.022 225.571,451.689 226.5,450.5C 228.409,451.348 230.409,451.682 232.5,451.5C 232.205,449.265 232.539,447.265 233.5,445.5 Z"/></g>
<g><path style="opacity:1" fill="#212122" d="M 563.5,462.5 C 566.833,462.5 570.167,462.5 573.5,462.5C 573.168,472.855 573.501,483.188 574.5,493.5C 575.107,493.376 575.44,493.043 575.5,492.5C 580.468,488.007 585.468,483.507 590.5,479C 594.833,478.333 599.167,478.333 603.5,479C 597.811,483.355 592.811,488.355 588.5,494C 593.681,502.001 599.015,509.834 604.5,517.5C 600.267,518.794 595.934,518.794 591.5,517.5C 587.859,512.185 584.192,506.851 580.5,501.5C 578.146,503.188 576.146,505.188 574.5,507.5C 573.518,510.962 573.185,514.629 573.5,518.5C 570.167,518.5 566.833,518.5 563.5,518.5C 563.5,499.833 563.5,481.167 563.5,462.5 Z"/></g>
<g><path style="opacity:1" fill="#265499" d="M 215.5,481.5 C 219.5,481.5 223.5,481.5 227.5,481.5C 230.268,484.771 233.268,487.938 236.5,491C 240.486,491.499 244.486,491.666 248.5,491.5C 245.023,492.323 241.356,492.823 237.5,493C 236.285,495.096 235.451,494.929 235,492.5C 234.333,495.167 233.667,495.167 233,492.5C 230.537,493.406 228.37,493.406 226.5,492.5C 226.5,490.833 226.5,489.167 226.5,487.5C 226.586,486.504 226.252,485.671 225.5,485C 222.361,482.84 219.694,483.173 217.5,486C 215.093,487.267 212.76,487.767 210.5,487.5C 209.112,486.409 208.612,485.076 209,483.5C 211.277,482.883 213.444,482.216 215.5,481.5 Z"/></g>
<g><path style="opacity:1" fill="#232324" d="M 550.5,490.5 C 550.5,499.833 550.5,509.167 550.5,518.5C 547.167,518.5 543.833,518.5 540.5,518.5C 540.945,509.06 540.445,499.726 539,490.5C 533.318,486.207 527.984,486.541 523,491.5C 522.517,492.448 522.351,493.448 522.5,494.5C 521.508,502.316 521.174,510.316 521.5,518.5C 518.167,518.5 514.833,518.5 511.5,518.5C 511.5,505.167 511.5,491.833 511.5,478.5C 514.5,478.5 517.5,478.5 520.5,478.5C 520.215,480.288 520.548,481.955 521.5,483.5C 529.72,475.975 538.22,475.642 547,482.5C 548.993,484.818 550.159,487.484 550.5,490.5 Z"/></g>
<g><path style="opacity:1" fill="#222323" d="M 769.5,477.5 C 779.318,475.75 786.985,478.916 792.5,487C 790.608,488.865 788.441,490.365 786,491.5C 779.862,485.473 773.529,485.14 767,490.5C 762.357,498.951 764.19,505.451 772.5,510C 777.989,510.923 782.322,509.09 785.5,504.5C 788.228,505.86 790.561,507.693 792.5,510C 786.946,518.079 779.279,521.079 769.5,519C 755.321,513.133 750.821,502.966 756,488.5C 759.299,483.279 763.799,479.612 769.5,477.5 Z"/></g>
<g><path style="opacity:1" fill="#252526" d="M 623.5,465.5 C 630.222,465.29 636.888,465.79 643.5,467C 645.813,467.641 647.48,468.974 648.5,471C 647.791,473.629 646.791,476.129 645.5,478.5C 639.24,475.082 632.573,473.915 625.5,475C 621.075,477.549 620.408,480.882 623.5,485C 631.191,487.541 638.857,490.207 646.5,493C 652.124,498.823 652.957,505.323 649,512.5C 645.896,515.933 642.063,518.1 637.5,519C 628.843,520.336 620.51,519.336 612.5,516C 611.272,515.221 610.272,514.221 609.5,513C 610.285,509.971 611.451,507.138 613,504.5C 621.495,511.099 630.495,512.099 640,507.5C 641.041,504.364 640.207,501.864 637.5,500C 629.553,498.098 621.886,495.431 614.5,492C 606.769,479.464 609.769,470.63 623.5,465.5 Z"/></g>
<g><path style="opacity:1" fill="#d9ecf7" d="M 226.5,487.5 C 226.5,489.167 226.5,490.833 226.5,492.5C 223.049,495.394 220.049,494.894 217.5,491C 212.177,490.501 206.844,490.334 201.5,490.5C 195.31,490.823 189.31,490.49 183.5,489.5C 189.842,489.666 196.175,489.5 202.5,489C 203.044,488.283 203.711,487.783 204.5,487.5C 206.641,488.163 208.975,488.497 211.5,488.5C 215.422,488.459 218.922,487.459 222,485.5C 223.833,485.519 225.333,486.185 226.5,487.5 Z"/></g>
<g><path style="opacity:1" fill="#355c8a" d="M 208.5,481.5 C 210.833,481.5 213.167,481.5 215.5,481.5C 213.444,482.216 211.277,482.883 209,483.5C 208.612,485.076 209.112,486.409 210.5,487.5C 212.76,487.767 215.093,487.267 217.5,486C 219.694,483.173 222.361,482.84 225.5,485C 226.252,485.671 226.586,486.504 226.5,487.5C 225.333,486.185 223.833,485.519 222,485.5C 218.922,487.459 215.422,488.459 211.5,488.5C 208.975,488.497 206.641,488.163 204.5,487.5C 205.441,485.228 206.774,483.228 208.5,481.5 Z"/></g>
<g><path style="opacity:1" fill="#818281" d="M 714.5,478.5 C 711.5,478.5 708.5,478.5 705.5,478.5C 705.5,491.833 705.5,505.167 705.5,518.5C 708.833,518.5 712.167,518.5 715.5,518.5C 712.038,519.482 708.371,519.815 704.5,519.5C 704.5,505.5 704.5,491.5 704.5,477.5C 708.042,477.187 711.375,477.521 714.5,478.5 Z"/></g>
<g><path style="opacity:1" fill="#435f8d" d="M 221.5,487.5 C 222.995,487.415 223.995,488.081 224.5,489.5C 223.68,491.111 222.346,491.778 220.5,491.5C 220.433,490.041 220.766,488.708 221.5,487.5 Z"/></g>
<g><path style="opacity:1" fill="#222324" d="M 744.5,490.5 C 744.5,499.833 744.5,509.167 744.5,518.5C 741.167,518.5 737.833,518.5 734.5,518.5C 734.826,509.651 734.493,500.984 733.5,492.5C 732.182,488.834 729.516,487.167 725.5,487.5C 721.965,487.351 719.132,488.684 717,491.5C 715.557,500.392 715.057,509.392 715.5,518.5C 712.167,518.5 708.833,518.5 705.5,518.5C 705.5,505.167 705.5,491.833 705.5,478.5C 708.5,478.5 711.5,478.5 714.5,478.5C 714.215,480.288 714.548,481.955 715.5,483.5C 723.656,475.837 732.156,475.504 741,482.5C 742.993,484.818 744.159,487.484 744.5,490.5 Z"/></g>
<g><path style="opacity:1" fill="#2a4387" d="M 201.5,490.5 C 206.844,490.334 212.177,490.501 217.5,491C 220.049,494.894 223.049,495.394 226.5,492.5C 228.37,493.406 230.537,493.406 233,492.5C 233.667,495.167 234.333,495.167 235,492.5C 235.451,494.929 236.285,495.096 237.5,493C 241.356,492.823 245.023,492.323 248.5,491.5C 250.099,491.232 251.432,491.566 252.5,492.5C 251.89,493.391 251.557,494.391 251.5,495.5C 244.833,495.5 238.167,495.5 231.5,495.5C 231.5,496.5 231.5,497.5 231.5,498.5C 237.5,498.5 243.5,498.5 249.5,498.5C 249.5,498.833 249.5,499.167 249.5,499.5C 244.076,500.786 238.41,501.452 232.5,501.5C 227.167,501.167 221.833,500.833 216.5,500.5C 213.888,496.912 210.888,496.579 207.5,499.5C 207.511,497.983 208.177,496.816 209.5,496C 208.377,494.956 207.044,494.29 205.5,494C 206.706,492.982 206.373,492.482 204.5,492.5C 203.261,492.942 202.261,493.609 201.5,494.5C 201.5,493.167 201.5,491.833 201.5,490.5 Z"/></g>
<g><path style="opacity:1" fill="#3b4d7b" d="M 183.5,489.5 C 189.31,490.49 195.31,490.823 201.5,490.5C 201.5,491.833 201.5,493.167 201.5,494.5C 201.539,495.583 201.873,496.583 202.5,497.5C 201.478,498.354 200.645,499.354 200,500.5C 199.503,503.146 199.336,505.813 199.5,508.5C 198.839,506.866 198.506,505.033 198.5,503C 198.481,499.335 199.148,495.835 200.5,492.5C 195.156,492.334 189.823,492.501 184.5,493C 178.08,498.513 175.247,497.013 176,488.5C 178.937,485.694 181.437,486.027 183.5,489.5 Z"/></g>
<g><path style="opacity:1" fill="#eaf1fa" d="M 177.5,489.5 C 178.833,489.5 180.167,489.5 181.5,489.5C 181.5,490.833 181.5,492.167 181.5,493.5C 178.5,493.833 177.167,492.5 177.5,489.5 Z"/></g>
<g><path style="opacity:1" fill="#f5f6f6" d="M 418.5,496.5 C 425.508,496.334 432.508,496.5 439.5,497C 443.292,499.053 444.458,502.219 443,506.5C 441.421,508.041 439.587,509.208 437.5,510C 431.175,510.5 424.842,510.666 418.5,510.5C 418.5,505.833 418.5,501.167 418.5,496.5 Z"/></g>
<g><path style="opacity:1" fill="#cfdeef" d="M 251.5,495.5 C 250.391,496.29 249.058,496.79 247.5,497C 248.416,497.278 249.082,497.778 249.5,498.5C 243.5,498.5 237.5,498.5 231.5,498.5C 231.5,497.5 231.5,496.5 231.5,495.5C 238.167,495.5 244.833,495.5 251.5,495.5 Z"/></g>
<g><path style="opacity:1" fill="#e5f6d8" d="M 305.5,497.5 C 299.076,496.717 293.742,498.717 289.5,503.5C 289.34,501.801 289.506,500.134 290,498.5C 291.131,499.604 291.965,499.271 292.5,497.5C 296.984,496.189 301.317,496.189 305.5,497.5 Z"/></g>
<g><path style="opacity:1" fill="#74b255" d="M 305.5,497.5 C 306.842,498.793 308.509,499.626 310.5,500C 311.652,502.149 313.152,503.982 315,505.5C 315.812,509.689 315.645,513.689 314.5,517.5C 312.952,517.179 312.285,516.179 312.5,514.5C 311.583,505.415 306.583,501.248 297.5,502C 294.283,503.715 291.95,506.215 290.5,509.5C 289.136,511.191 287.803,512.858 286.5,514.5C 285.167,514.167 283.833,513.833 282.5,513.5C 284.354,509.779 286.687,506.446 289.5,503.5C 293.742,498.717 299.076,496.717 305.5,497.5 Z"/></g>
<g><path style="opacity:1" fill="#e7eaf5" d="M 249.5,499.5 C 250.268,500.263 250.768,501.263 251,502.5C 252.512,500.043 253.846,500.043 255,502.5C 255.862,500.913 256.529,499.246 257,497.5C 259.081,498.333 261.248,498.333 263.5,497.5C 263.167,498.167 262.833,498.833 262.5,499.5C 255.964,503.271 253.798,508.938 256,516.5C 256.847,518.193 257.68,519.86 258.5,521.5C 257.25,521.423 256.417,520.756 256,519.5C 255.019,522.655 253.685,522.988 252,520.5C 251.487,521.527 250.987,522.527 250.5,523.5C 250.167,523.5 249.833,523.5 249.5,523.5C 241.903,521.533 233.903,520.866 225.5,521.5C 225.67,522.822 225.337,523.989 224.5,525C 222.167,525.667 219.833,525.667 217.5,525C 216.944,524.617 216.611,524.117 216.5,523.5C 210.511,522.09 204.511,522.424 198.5,524.5C 198.634,522.708 198.301,521.042 197.5,519.5C 198.167,518.833 198.833,518.167 199.5,517.5C 199.5,518.5 199.5,519.5 199.5,520.5C 205.176,520.666 210.843,520.499 216.5,520C 219.417,515.524 222.584,515.357 226,519.5C 233.413,518.519 240.913,518.186 248.5,518.5C 248.714,516.856 248.38,515.356 247.5,514C 244.758,515.283 241.758,515.616 238.5,515C 235.808,512.368 236.141,510.034 239.5,508C 242.171,507.167 244.504,507.667 246.5,509.5C 246.281,510.675 246.614,511.675 247.5,512.5C 248.484,509.572 248.817,506.572 248.5,503.5C 240.167,503.5 231.833,503.5 223.5,503.5C 221.143,503.337 218.81,503.503 216.5,504C 215.619,504.708 214.953,505.542 214.5,506.5C 211.547,506.85 209.213,505.85 207.5,503.5C 207.5,502.167 207.5,500.833 207.5,499.5C 210.888,496.579 213.888,496.912 216.5,500.5C 221.833,500.833 227.167,501.167 232.5,501.5C 238.41,501.452 244.076,500.786 249.5,499.5 Z"/></g>
<g><path style="opacity:1" fill="#374c82" d="M 263.5,497.5 C 272.387,495.47 279.387,498.137 284.5,505.5C 283.833,506.833 282.833,507.833 281.5,508.5C 278.919,505.752 275.919,503.586 272.5,502C 270.071,501.297 267.738,501.463 265.5,502.5C 266.315,500.698 267.815,499.698 270,499.5C 272.228,499.328 274.394,499.828 276.5,501C 275.833,500.333 275.167,499.667 274.5,499C 270.446,498.306 266.446,498.473 262.5,499.5C 262.833,498.833 263.167,498.167 263.5,497.5 Z"/></g>
<g><path style="opacity:1" fill="#233587" d="M 207.5,499.5 C 207.5,500.833 207.5,502.167 207.5,503.5C 208.933,505.558 209.6,507.892 209.5,510.5C 206.167,510.5 202.833,510.5 199.5,510.5C 199.5,509.833 199.5,509.167 199.5,508.5C 199.336,505.813 199.503,503.146 200,500.5C 200.645,499.354 201.478,498.354 202.5,497.5C 201.873,496.583 201.539,495.583 201.5,494.5C 202.261,493.609 203.261,492.942 204.5,492.5C 206.373,492.482 206.706,492.982 205.5,494C 207.044,494.29 208.377,494.956 209.5,496C 208.177,496.816 207.511,497.983 207.5,499.5 Z"/></g>
<g><path style="opacity:1" fill="#272b63" d="M 210.5,500.5 C 211.5,500.5 212.5,500.5 213.5,500.5C 213.5,501.5 213.5,502.5 213.5,503.5C 212.5,503.5 211.5,503.5 210.5,503.5C 210.5,502.5 210.5,501.5 210.5,500.5 Z"/></g>
<g><path style="opacity:1" fill="#242525" d="M 498.5,490.5 C 498.5,499.833 498.5,509.167 498.5,518.5C 495.5,518.5 492.5,518.5 489.5,518.5C 489.762,517.022 489.429,515.689 488.5,514.5C 486.71,516.316 484.71,517.649 482.5,518.5C 468.802,521.621 462.302,516.288 463,502.5C 464.563,499.272 467.063,497.105 470.5,496C 476.491,495.501 482.491,495.334 488.5,495.5C 489.051,490.882 487.051,488.049 482.5,487C 479.5,486.333 476.5,486.333 473.5,487C 471.35,488.411 469.016,489.245 466.5,489.5C 466.683,487.064 466.016,484.897 464.5,483C 474.269,476.157 484.269,475.824 494.5,482C 496.269,484.7 497.602,487.534 498.5,490.5 Z"/></g>
<g><path style="opacity:1" fill="#f4f4f4" d="M 475.5,501.5 C 479.833,501.5 484.167,501.5 488.5,501.5C 488.967,508.202 485.8,511.535 479,511.5C 473.743,511.911 471.743,509.578 473,504.5C 474.045,503.627 474.878,502.627 475.5,501.5 Z"/></g>
<g><path style="opacity:1" fill="#aaaaaa" d="M 550.5,490.5 C 551.494,499.986 551.827,509.652 551.5,519.5C 547.629,519.815 543.962,519.482 540.5,518.5C 543.833,518.5 547.167,518.5 550.5,518.5C 550.5,509.167 550.5,499.833 550.5,490.5 Z"/></g>
<g><path style="opacity:1" fill="#9194b6" d="M 223.5,503.5 C 231.833,503.5 240.167,503.5 248.5,503.5C 248.817,506.572 248.484,509.572 247.5,512.5C 246.614,511.675 246.281,510.675 246.5,509.5C 247.451,508.081 247.784,506.415 247.5,504.5C 241.833,504.5 236.167,504.5 230.5,504.5C 227.941,504.802 225.607,504.468 223.5,503.5 Z"/></g>
<g><path style="opacity:1" fill="#e9f9e2" d="M 368.5,534.5 C 369.021,530.519 369.354,526.519 369.5,522.5C 370.492,514.684 370.826,506.684 370.5,498.5C 371.151,497.909 371.818,497.243 372.5,496.5C 372.813,508.099 372.313,519.766 371,531.5C 370.764,533.119 369.931,534.119 368.5,534.5 Z"/></g>
<g><path style="opacity:1" fill="#ababac" d="M 744.5,490.5 C 745.494,499.986 745.827,509.652 745.5,519.5C 741.5,519.5 737.5,519.5 733.5,519.5C 733.5,510.5 733.5,501.5 733.5,492.5C 734.493,500.984 734.826,509.651 734.5,518.5C 737.833,518.5 741.167,518.5 744.5,518.5C 744.5,509.167 744.5,499.833 744.5,490.5 Z"/></g>
<g><path style="opacity:1" fill="#253182" d="M 223.5,503.5 C 225.607,504.468 227.941,504.802 230.5,504.5C 230.816,506.436 232.15,508.269 234.5,510C 227.321,510.171 220.321,510.671 213.5,511.5C 212.833,511.5 212.167,511.5 211.5,511.5C 211.343,510.127 211.51,508.793 212,507.5C 213.159,508.566 213.992,508.233 214.5,506.5C 214.953,505.542 215.619,504.708 216.5,504C 218.81,503.503 221.143,503.337 223.5,503.5 Z"/></g>
<g><path style="opacity:1" fill="#232424" d="M 654.5,478.5 C 658.226,478.177 661.893,478.511 665.5,479.5C 669.626,488.377 673.459,497.377 677,506.5C 680.931,497.541 684.764,488.541 688.5,479.5C 691.833,478.167 695.167,478.167 698.5,479.5C 691.609,496.283 684.442,512.95 677,529.5C 669.38,536.151 661.88,536.151 654.5,529.5C 655.373,527.587 656.373,525.753 657.5,524C 660.714,524.917 664.047,525.25 667.5,525C 670.035,523.799 671.368,521.799 671.5,519C 666.518,505.203 660.851,491.703 654.5,478.5 Z"/></g>
<g><path style="opacity:1" fill="#353862" d="M 240.5,510.5 C 241.5,510.5 242.5,510.5 243.5,510.5C 243.5,511.5 243.5,512.5 243.5,513.5C 242.5,513.5 241.5,513.5 240.5,513.5C 240.5,512.5 240.5,511.5 240.5,510.5 Z"/></g>
<g><path style="opacity:1" fill="#3b3e73" d="M 207.5,503.5 C 209.213,505.85 211.547,506.85 214.5,506.5C 213.992,508.233 213.159,508.566 212,507.5C 211.51,508.793 211.343,510.127 211.5,511.5C 203.811,511.613 196.145,512.113 188.5,513C 185.812,516.073 182.979,516.24 180,513.5C 178.67,508.502 180.504,506.336 185.5,507C 189.563,510.035 194.229,511.202 199.5,510.5C 202.833,510.5 206.167,510.5 209.5,510.5C 209.6,507.892 208.933,505.558 207.5,503.5 Z"/></g>
<g><path style="opacity:1" fill="#e0e2f1" d="M 182.5,509.5 C 185.166,509.066 186.333,510.066 186,512.5C 182.403,514.066 181.237,513.066 182.5,509.5 Z"/></g>
<g><path style="opacity:1" fill="#323679" d="M 230.5,504.5 C 236.167,504.5 241.833,504.5 247.5,504.5C 247.784,506.415 247.451,508.081 246.5,509.5C 244.504,507.667 242.171,507.167 239.5,508C 236.141,510.034 235.808,512.368 238.5,515C 241.758,515.616 244.758,515.283 247.5,514C 248.38,515.356 248.714,516.856 248.5,518.5C 240.913,518.186 233.413,518.519 226,519.5C 222.584,515.357 219.417,515.524 216.5,520C 210.843,520.499 205.176,520.666 199.5,520.5C 199.5,519.5 199.5,518.5 199.5,517.5C 199.33,516.178 199.663,515.011 200.5,514C 211.515,513.832 222.515,513.332 233.5,512.5C 226.866,511.503 220.2,511.17 213.5,511.5C 220.321,510.671 227.321,510.171 234.5,510C 232.15,508.269 230.816,506.436 230.5,504.5 Z"/></g>
<g><path style="opacity:1" fill="#4c607b" d="M 282.5,513.5 C 283.833,513.833 285.167,514.167 286.5,514.5C 284.727,517.06 282.727,519.393 280.5,521.5C 280.573,519.973 279.906,518.973 278.5,518.5C 279.124,516.246 280.457,514.579 282.5,513.5 Z"/></g>
<g><path style="opacity:1" fill="#507f9f" d="M 295.5,506.5 C 298.967,505.559 302.301,505.725 305.5,507C 309.002,512.487 307.669,516.32 301.5,518.5C 299.672,517.205 297.672,516.205 295.5,515.5C 294.61,512.614 294.61,509.614 295.5,506.5 Z"/></g>
<g><path style="opacity:1" fill="#ddf8fb" d="M 299.5,508.5 C 304.159,508.015 305.492,509.848 303.5,514C 298.728,514.81 297.395,512.977 299.5,508.5 Z"/></g>
<g><path style="opacity:1" fill="#e5f7dd" d="M 312.5,514.5 C 310.847,516.961 308.847,519.128 306.5,521C 303.167,521.667 299.833,521.667 296.5,521C 295.944,520.617 295.611,520.117 295.5,519.5C 298.779,520.492 302.112,520.659 305.5,520C 306.337,518.989 306.67,517.822 306.5,516.5C 309.734,516.763 311.068,515.263 310.5,512C 310.248,509.606 309.248,507.606 307.5,506C 305.094,505.694 302.927,504.861 301,503.5C 298.88,504.14 297.046,505.14 295.5,506.5C 294.33,508.279 292.664,509.279 290.5,509.5C 291.95,506.215 294.283,503.715 297.5,502C 306.583,501.248 311.583,505.415 312.5,514.5 Z"/></g>
<g><path style="opacity:1" fill="#bebebe" d="M 498.5,490.5 C 499.494,499.986 499.827,509.652 499.5,519.5C 495.833,519.5 492.167,519.5 488.5,519.5C 488.649,518.448 488.483,517.448 488,516.5C 486.599,518.192 484.766,518.859 482.5,518.5C 484.71,517.649 486.71,516.316 488.5,514.5C 489.429,515.689 489.762,517.022 489.5,518.5C 492.5,518.5 495.5,518.5 498.5,518.5C 498.5,509.167 498.5,499.833 498.5,490.5 Z"/></g>
<g><path style="opacity:1" fill="#aeaeae" d="M 511.5,478.5 C 511.5,491.833 511.5,505.167 511.5,518.5C 514.833,518.5 518.167,518.5 521.5,518.5C 521.174,510.316 521.508,502.316 522.5,494.5C 522.5,502.833 522.5,511.167 522.5,519.5C 518.5,519.5 514.5,519.5 510.5,519.5C 510.171,505.656 510.504,491.99 511.5,478.5 Z"/></g>
<g><path style="opacity:1" fill="#a4a4a4" d="M 591.5,517.5 C 595.934,518.794 600.267,518.794 604.5,517.5C 605.043,517.56 605.376,517.893 605.5,518.5C 603.167,518.833 600.833,519.167 598.5,519.5C 595.731,519.471 593.397,518.805 591.5,517.5 Z"/></g>
<g><path style="opacity:1" fill="#232260" d="M 197.5,519.5 C 198.301,521.042 198.634,522.708 198.5,524.5C 197.167,524.5 195.833,524.5 194.5,524.5C 193.916,521.715 194.916,520.048 197.5,519.5 Z"/></g>
<g><path style="opacity:1" fill="#74b853" d="M 365.5,535.5 C 365.611,536.117 365.944,536.617 366.5,537C 364.923,539.595 363.923,542.429 363.5,545.5C 361.621,545.393 361.288,545.893 362.5,547C 361.333,547.5 360.5,548.333 360,549.5C 357.491,548.04 354.991,545.874 352.5,543C 349.348,543.775 346.682,542.775 344.5,540C 345.308,539.692 345.975,539.192 346.5,538.5C 346.154,537.304 345.654,537.304 345,538.5C 344.833,537.167 344.667,535.833 344.5,534.5C 346.439,528.543 348.272,522.543 350,516.5C 356.111,522.051 361.278,528.384 365.5,535.5 Z"/></g>
<g><path style="opacity:1" fill="#302f68" d="M 219.5,520.5 C 220.978,520.238 222.311,520.571 223.5,521.5C 222.68,523.111 221.346,523.778 219.5,523.5C 219.5,522.5 219.5,521.5 219.5,520.5 Z"/></g>
<g><path style="opacity:1" fill="#2e3578" d="M 265.5,502.5 C 260.373,506.408 259.206,511.408 262,517.5C 263.451,519.464 265.284,520.797 267.5,521.5C 269.277,522.6 271.277,523.434 273.5,524C 270.883,524.822 268.216,525.322 265.5,525.5C 262.705,524.937 260.372,523.604 258.5,521.5C 257.68,519.86 256.847,518.193 256,516.5C 253.798,508.938 255.964,503.271 262.5,499.5C 266.446,498.473 270.446,498.306 274.5,499C 275.167,499.667 275.833,500.333 276.5,501C 274.394,499.828 272.228,499.328 270,499.5C 267.815,499.698 266.315,500.698 265.5,502.5 Z"/></g>
<g><path style="opacity:1" fill="#63a15a" d="M 312.5,514.5 C 312.285,516.179 312.952,517.179 314.5,517.5C 313.644,521.854 310.977,524.354 306.5,525C 298.148,527.487 291.815,524.987 287.5,517.5C 287.887,516.28 288.72,515.613 290,515.5C 291.981,516.65 293.814,517.984 295.5,519.5C 295.611,520.117 295.944,520.617 296.5,521C 299.833,521.667 303.167,521.667 306.5,521C 308.847,519.128 310.847,516.961 312.5,514.5 Z"/></g>
<g><path style="opacity:1" fill="#2f2e77" d="M 249.5,523.5 C 243.69,524.49 237.69,524.823 231.5,524.5C 231.5,525.833 231.5,527.167 231.5,528.5C 237.868,528.17 244.202,528.504 250.5,529.5C 250.291,530.086 249.957,530.586 249.5,531C 245.312,531.176 241.312,531.676 237.5,532.5C 233.668,535.499 230.335,538.999 227.5,543C 221.161,543.348 214.827,543.182 208.5,542.5C 206.367,540.909 204.701,538.909 203.5,536.5C 207.97,535.514 212.637,535.181 217.5,535.5C 218.399,538.452 220.399,539.619 223.5,539C 225.229,537.211 225.896,535.044 225.5,532.5C 225.288,530.616 224.288,529.283 222.5,528.5C 215.318,531.371 207.985,532.037 200.5,530.5C 200.5,530.167 200.5,529.833 200.5,529.5C 201.774,528.811 201.774,527.977 200.5,527C 202.225,527.409 203.892,527.242 205.5,526.5C 204.5,525.833 203.5,525.167 202.5,524.5C 207.12,523.507 211.786,523.173 216.5,523.5C 216.611,524.117 216.944,524.617 217.5,525C 219.833,525.667 222.167,525.667 224.5,525C 225.337,523.989 225.67,522.822 225.5,521.5C 233.903,520.866 241.903,521.533 249.5,523.5 Z"/></g>
<g><path style="opacity:1" fill="#3a4b80" d="M 278.5,518.5 C 279.906,518.973 280.573,519.973 280.5,521.5C 276.317,526.12 271.317,527.453 265.5,525.5C 268.216,525.322 270.883,524.822 273.5,524C 271.277,523.434 269.277,522.6 267.5,521.5C 271.571,521.88 275.238,520.88 278.5,518.5 Z"/></g>
<g><path style="opacity:1" fill="#383875" d="M 216.5,523.5 C 211.786,523.173 207.12,523.507 202.5,524.5C 203.5,525.167 204.5,525.833 205.5,526.5C 203.892,527.242 202.225,527.409 200.5,527C 201.774,527.977 201.774,528.811 200.5,529.5C 200.5,528.833 200.167,528.5 199.5,528.5C 199.567,527.041 199.234,525.708 198.5,524.5C 204.511,522.424 210.511,522.09 216.5,523.5 Z"/></g>
<g><path style="opacity:1" fill="#5b5d8a" d="M 249.5,523.5 C 249.833,523.5 250.167,523.5 250.5,523.5C 244.889,525.139 238.889,526.139 232.5,526.5C 238.807,527.331 245.141,527.831 251.5,528C 252.252,528.671 252.586,529.504 252.5,530.5C 247.944,532.442 242.944,533.108 237.5,532.5C 241.312,531.676 245.312,531.176 249.5,531C 249.957,530.586 250.291,530.086 250.5,529.5C 244.202,528.504 237.868,528.17 231.5,528.5C 231.5,527.167 231.5,525.833 231.5,524.5C 237.69,524.823 243.69,524.49 249.5,523.5 Z"/></g>
<g><path style="opacity:1" fill="#343368" d="M 184.5,530.5 C 189.833,531.833 195.167,531.833 200.5,530.5C 207.985,532.037 215.318,531.371 222.5,528.5C 224.288,529.283 225.288,530.616 225.5,532.5C 222.962,530.158 220.295,529.992 217.5,532C 206.498,532.628 195.498,533.294 184.5,534C 180.97,538.817 177.804,538.651 175,533.5C 174.477,529.883 175.977,527.549 179.5,526.5C 181.787,527.127 183.454,528.46 184.5,530.5 Z"/></g>
<g><path style="opacity:1" fill="#8b8eb5" d="M 199.5,528.5 C 200.167,528.5 200.5,528.833 200.5,529.5C 200.5,529.833 200.5,530.167 200.5,530.5C 195.167,531.833 189.833,531.833 184.5,530.5C 189.944,531.108 194.944,530.442 199.5,528.5 Z"/></g>
<g><path style="opacity:1" fill="#e5e8f6" d="M 178.5,529.5 C 181.084,530.048 182.084,531.715 181.5,534.5C 177.716,534.475 176.716,532.808 178.5,529.5 Z"/></g>
<g><path style="opacity:1" fill="#aeb2d2" d="M 217.5,535.5 C 212.637,535.181 207.97,535.514 203.5,536.5C 202.957,536.44 202.624,536.107 202.5,535.5C 207.652,534.186 212.652,534.186 217.5,535.5 Z"/></g>
<g><path style="opacity:1" fill="#312f68" d="M 220.5,532.5 C 222.912,532.694 223.912,534.027 223.5,536.5C 222.167,536.5 220.833,536.5 219.5,536.5C 219.433,535.041 219.766,533.708 220.5,532.5 Z"/></g>
<g><path style="opacity:1" fill="#429b50" d="M 339.5,519.5 C 338.587,521.086 338.587,522.586 339.5,524C 335.091,524.583 332.757,526.75 332.5,530.5C 333.5,531.167 334.5,531.833 335.5,532.5C 336.641,533.425 336.641,534.259 335.5,535C 337.584,536.501 338.917,538.501 339.5,541C 338.12,544.258 336.62,547.425 335,550.5C 331.421,551.843 329.921,554.176 330.5,557.5C 329.376,558.914 328.376,560.414 327.5,562C 328.925,563.362 329.758,564.862 330,566.5C 330.333,565.833 330.667,565.167 331,564.5C 331.667,565.833 332.333,565.833 333,564.5C 333.796,568.824 335.129,571.49 337,572.5C 337.359,569.456 338.026,569.122 339,571.5C 339.667,568.833 340.333,568.833 341,571.5C 341.333,570.833 341.667,570.167 342,569.5C 342.676,571.796 343.176,574.129 343.5,576.5C 342.477,578.846 341.477,581.179 340.5,583.5C 340.5,584.167 340.167,584.5 339.5,584.5C 336.638,585.556 333.805,585.556 331,584.5C 330.683,582.699 330.016,582.366 329,583.5C 327.5,582.333 326,581.167 324.5,580C 326.795,579.016 326.461,578.183 323.5,577.5C 322.914,577.709 322.414,578.043 322,578.5C 320.667,576.5 319.333,574.5 318,572.5C 317,573.5 316,574.5 315,575.5C 314.333,574.167 313.667,574.167 313,575.5C 312.768,574.263 312.268,573.263 311.5,572.5C 310.972,571.153 310.805,569.819 311,568.5C 314.626,567.605 317.46,565.605 319.5,562.5C 317.77,560.207 316.437,557.707 315.5,555C 314.551,554.383 313.718,554.549 313,555.5C 312.097,554.299 310.931,553.465 309.5,553C 314.243,548.727 318.076,544.227 321,539.5C 321.333,539.833 321.667,540.167 322,540.5C 323.243,538.167 324.909,537.5 327,538.5C 327.617,537.551 327.451,536.718 326.5,536C 328.125,535.147 328.458,534.147 327.5,533C 329.141,531.871 330.141,530.371 330.5,528.5C 333.167,525.167 336.167,522.167 339.5,519.5 Z"/></g>
<g><path style="opacity:1" fill="#27256d" d="M 217.5,554.5 C 215.263,552.353 213.263,550.02 211.5,547.5C 211.918,546.778 212.584,546.278 213.5,546C 218.5,545.667 223.5,545.333 228.5,545C 231.833,541.667 235.167,538.333 238.5,535C 241.554,534.179 244.554,534.345 247.5,535.5C 241.348,542.152 235.015,548.652 228.5,555C 224.745,555.755 221.078,555.589 217.5,554.5 Z"/></g>
<g><path style="opacity:1" fill="#858585" d="M 582.5,537.5 C 586.102,537.678 586.102,538.678 582.5,540.5C 581.438,539.575 581.438,538.575 582.5,537.5 Z"/></g>
<g><path style="opacity:1" fill="#86b47a" d="M 369.5,522.5 C 369.354,526.519 369.021,530.519 368.5,534.5C 367.434,539.463 365.767,544.129 363.5,548.5C 363.5,547.5 363.5,546.5 363.5,545.5C 363.923,542.429 364.923,539.595 366.5,537C 365.944,536.617 365.611,536.117 365.5,535.5C 367.091,531.796 367.924,527.796 368,523.5C 368.383,522.944 368.883,522.611 369.5,522.5 Z"/></g>
<g><path style="opacity:1" fill="#5ca84f" d="M 365.5,482.5 C 367.909,487.491 369.576,492.824 370.5,498.5C 370.826,506.684 370.492,514.684 369.5,522.5C 368.883,522.611 368.383,522.944 368,523.5C 367.924,527.796 367.091,531.796 365.5,535.5C 361.278,528.384 356.111,522.051 350,516.5C 348.272,522.543 346.439,528.543 344.5,534.5C 344.667,535.833 344.833,537.167 345,538.5C 345.654,537.304 346.154,537.304 346.5,538.5C 345.975,539.192 345.308,539.692 344.5,540C 346.682,542.775 349.348,543.775 352.5,543C 354.991,545.874 357.491,548.04 360,549.5C 360.5,548.333 361.333,547.5 362.5,547C 361.288,545.893 361.621,545.393 363.5,545.5C 363.5,546.5 363.5,547.5 363.5,548.5C 363.011,549.995 362.345,551.329 361.5,552.5C 358.164,553.523 356.664,555.856 357,559.5C 353.336,565.979 348.836,571.646 343.5,576.5C 343.176,574.129 342.676,571.796 342,569.5C 341.667,570.167 341.333,570.833 341,571.5C 340.333,568.833 339.667,568.833 339,571.5C 338.026,569.122 337.359,569.456 337,572.5C 335.129,571.49 333.796,568.824 333,564.5C 332.333,565.833 331.667,565.833 331,564.5C 330.667,565.167 330.333,565.833 330,566.5C 329.758,564.862 328.925,563.362 327.5,562C 328.376,560.414 329.376,558.914 330.5,557.5C 329.921,554.176 331.421,551.843 335,550.5C 336.62,547.425 338.12,544.258 339.5,541C 338.917,538.501 337.584,536.501 335.5,535C 336.641,534.259 336.641,533.425 335.5,532.5C 334.5,531.833 333.5,531.167 332.5,530.5C 332.757,526.75 335.091,524.583 339.5,524C 338.587,522.586 338.587,521.086 339.5,519.5C 341.833,516.833 344.167,514.167 346.5,511.5C 346.918,510.778 347.584,510.278 348.5,510C 346.152,507.884 346.819,506.718 350.5,506.5C 350.435,506.938 350.601,507.272 351,507.5C 356.712,501.751 361.712,495.418 366,488.5C 366.18,486.512 366.014,484.512 365.5,482.5 Z"/></g>
<g><path style="opacity:1" fill="#3b3b6f" d="M 208.5,543.5 C 208.611,544.117 208.944,544.617 209.5,545C 205.644,545.177 201.977,545.677 198.5,546.5C 196.532,549.502 193.865,550.168 190.5,548.5C 188.335,544.023 189.502,541.023 194,539.5C 195.775,540.27 197.275,541.437 198.5,543C 201.817,543.498 205.15,543.665 208.5,543.5 Z"/></g>
<g><path style="opacity:1" fill="#d9daed" d="M 192.5,542.5 C 196.161,542.35 197.161,543.85 195.5,547C 191.707,547.487 190.707,545.987 192.5,542.5 Z"/></g>
<g><path style="opacity:1" fill="#767676" d="M 491.5,542.5 C 492.812,544.743 493.478,547.41 493.5,550.5C 493.167,553.167 492.833,555.833 492.5,558.5C 491.505,553.208 491.172,547.875 491.5,542.5 Z"/></g>
<g><path style="opacity:1" fill="#9c9c9c" d="M 639.5,544.5 C 638.833,544.5 638.167,544.5 637.5,544.5C 634.946,543.612 632.279,543.279 629.5,543.5C 629.5,545.167 629.5,546.833 629.5,548.5C 631.5,548.5 633.5,548.5 635.5,548.5C 633.393,549.468 631.059,549.802 628.5,549.5C 628.663,547.143 628.497,544.81 628,542.5C 627.501,547.823 627.334,553.156 627.5,558.5C 630.833,558.5 634.167,558.5 637.5,558.5C 634.038,559.482 630.371,559.815 626.5,559.5C 626.5,553.5 626.5,547.5 626.5,541.5C 630.182,541.335 633.848,541.501 637.5,542C 638.756,542.417 639.423,543.25 639.5,544.5 Z"/></g>
<g><path style="opacity:1" fill="#828282" d="M 789.5,541.5 C 793.122,540.924 796.122,541.924 798.5,544.5C 797.424,545.656 796.424,545.489 795.5,544C 790.289,542.768 787.289,544.768 786.5,550C 787.55,556.277 791.05,558.111 797,555.5C 798.811,556.424 798.645,557.257 796.5,558C 787.386,559.553 783.553,555.72 785,546.5C 786.025,544.313 787.525,542.646 789.5,541.5 Z"/></g>
<g><path style="opacity:1" fill="#b1b1b1" d="M 840.5,558.5 C 840.666,553.156 840.499,547.823 840,542.5C 839.827,546.541 839.327,550.541 838.5,554.5C 837.893,554.376 837.56,554.043 837.5,553.5C 838.483,549.702 838.817,545.702 838.5,541.5C 839.5,541.5 840.5,541.5 841.5,541.5C 841.822,547.358 841.489,553.025 840.5,558.5 Z"/></g>
<g><path style="opacity:1" fill="#767676" d="M 452.5,542.5 C 456.183,546.025 459.35,550.025 462,554.5C 462.173,550.459 462.673,546.459 463.5,542.5C 464.495,547.792 464.828,553.125 464.5,558.5C 463.325,558.719 462.325,558.386 461.5,557.5C 458.858,553.691 456.025,550.024 453,546.5C 453.102,550.956 452.268,554.956 450.5,558.5C 449.887,552.729 450.554,547.396 452.5,542.5 Z"/></g>
<g><path style="opacity:1" fill="#f5f4f5" d="M 637.5,544.5 C 637.843,546.483 637.176,547.817 635.5,548.5C 633.5,548.5 631.5,548.5 629.5,548.5C 629.5,546.833 629.5,545.167 629.5,543.5C 632.279,543.279 634.946,543.612 637.5,544.5 Z"/></g>
<g><path style="opacity:1" fill="#828282" d="M 413.5,541.5 C 417.05,541.133 420.05,542.133 422.5,544.5C 422.167,544.833 421.833,545.167 421.5,545.5C 414.098,542.114 410.265,544.448 410,552.5C 412.77,556.468 416.437,557.468 421,555.5C 422.811,556.424 422.645,557.257 420.5,558C 410.836,560 406.669,556.167 408,546.5C 409.73,544.598 411.563,542.931 413.5,541.5 Z"/></g>
<g><path style="opacity:1" fill="#c2c2c2" d="M 452.5,542.5 C 450.554,547.396 449.887,552.729 450.5,558.5C 449.511,553.025 449.178,547.358 449.5,541.5C 450.791,541.263 451.791,541.596 452.5,542.5 Z"/></g>
<g><path style="opacity:1" fill="#7f7f7f" d="M 475.5,541.5 C 477.857,541.337 480.19,541.503 482.5,542C 484.904,542.508 485.571,543.675 484.5,545.5C 478.682,542.245 474.682,543.745 472.5,550C 473.926,556.384 477.76,558.217 484,555.5C 485.722,555.611 485.888,556.111 484.5,557C 474.426,560.553 469.926,557.053 471,546.5C 472.193,544.503 473.693,542.836 475.5,541.5 Z"/></g>
<g><path style="opacity:1" fill="#848484" d="M 596.5,541.5 C 601.429,544.281 605.263,548.281 608,553.5C 608.499,549.514 608.666,545.514 608.5,541.5C 609.5,541.5 610.5,541.5 611.5,541.5C 611.5,547.167 611.5,552.833 611.5,558.5C 610.448,558.649 609.448,558.483 608.5,558C 605.667,554.5 602.833,551 600,547.5C 599.501,551.152 599.335,554.818 599.5,558.5C 598.5,558.5 597.5,558.5 596.5,558.5C 596.5,552.833 596.5,547.167 596.5,541.5 Z"/></g>
<g><path style="opacity:1" fill="#6f6f6f" d="M 516.5,542.5 C 517.812,544.743 518.478,547.41 518.5,550.5C 518.167,553.167 517.833,555.833 517.5,558.5C 516.505,553.208 516.172,547.875 516.5,542.5 Z"/></g>
<g><path style="opacity:1" fill="#767676" d="M 857.5,541.5 C 858.814,543.915 859.481,546.748 859.5,550C 859.167,552.833 858.833,555.667 858.5,558.5C 857.505,552.872 857.171,547.206 857.5,541.5 Z"/></g>
<g><path style="opacity:1" fill="#737373" d="M 747.5,542.5 C 748.812,544.743 749.478,547.41 749.5,550.5C 749.478,553.59 748.812,556.257 747.5,558.5C 747.5,553.167 747.5,547.833 747.5,542.5 Z"/></g>
<g><path style="opacity:1" fill="#7c7c7c" d="M 837.5,553.5 C 837.56,554.043 837.893,554.376 838.5,554.5C 839.327,550.541 839.827,546.541 840,542.5C 840.499,547.823 840.666,553.156 840.5,558.5C 835.869,555.026 832.036,550.693 829,545.5C 828.828,549.871 828.328,554.204 827.5,558.5C 826.505,552.872 826.171,547.206 826.5,541.5C 831.488,544.16 835.154,548.16 837.5,553.5 Z"/></g>
<g><path style="opacity:1" fill="#7b7b7b" d="M 565.5,542.5 C 566.812,544.743 567.478,547.41 567.5,550.5C 567.167,553.167 566.833,555.833 566.5,558.5C 565.505,553.208 565.172,547.875 565.5,542.5 Z"/></g>
<g><path style="opacity:1" fill="#8b8b8b" d="M 666.5,541.5 C 668.39,541.297 669.89,541.963 671,543.5C 673.333,546.833 675.667,550.167 678,553.5C 678.499,549.514 678.666,545.514 678.5,541.5C 679.5,541.5 680.5,541.5 681.5,541.5C 681.5,547.167 681.5,552.833 681.5,558.5C 680.448,558.649 679.448,558.483 678.5,558C 676.026,554.225 673.193,550.725 670,547.5C 669.501,551.152 669.335,554.818 669.5,558.5C 668.5,558.5 667.5,558.5 666.5,558.5C 666.5,552.833 666.5,547.167 666.5,541.5 Z"/></g>
<g><path style="opacity:1" fill="#b5b5b5" d="M 747.5,542.5 C 748.209,541.596 749.209,541.263 750.5,541.5C 750.5,547.5 750.5,553.5 750.5,559.5C 749.209,559.737 748.209,559.404 747.5,558.5C 748.812,556.257 749.478,553.59 749.5,550.5C 749.478,547.41 748.812,544.743 747.5,542.5 Z"/></g>
<g><path style="opacity:1" fill="#858585" d="M 727.5,541.5 C 730.85,541.335 734.183,541.502 737.5,542C 742.462,545.303 742.795,549.136 738.5,553.5C 739.248,555.332 740.248,556.999 741.5,558.5C 740.5,559.833 739.5,559.833 738.5,558.5C 737.37,554.369 734.703,552.702 730.5,553.5C 730.5,555.5 730.5,557.5 730.5,559.5C 729.5,559.5 728.5,559.5 727.5,559.5C 727.5,553.5 727.5,547.5 727.5,541.5 Z"/></g>
<g><path style="opacity:1" fill="#bcbcbc" d="M 736.5,544.5 C 734.5,544.5 732.5,544.5 730.5,544.5C 730.5,546.5 730.5,548.5 730.5,550.5C 732.5,550.5 734.5,550.5 736.5,550.5C 734.393,551.468 732.059,551.802 729.5,551.5C 729.5,548.833 729.5,546.167 729.5,543.5C 732.059,543.198 734.393,543.532 736.5,544.5 Z"/></g>
<g><path style="opacity:1" fill="#f8f8f8" d="M 736.5,544.5 C 738.293,544.884 739.293,546.05 739.5,548C 739.252,549.749 738.252,550.582 736.5,550.5C 734.5,550.5 732.5,550.5 730.5,550.5C 730.5,548.5 730.5,546.5 730.5,544.5C 732.5,544.5 734.5,544.5 736.5,544.5 Z"/></g>
<g><path style="opacity:1" fill="#808080" d="M 871.5,541.5 C 872.822,541.33 873.989,541.663 875,542.5C 877.167,547.5 879.333,552.5 881.5,557.5C 881.167,557.833 880.833,558.167 880.5,558.5C 879.158,555.608 876.825,554.275 873.5,554.5C 871.833,554.667 870.167,554.833 868.5,555C 867.663,556.011 867.33,557.178 867.5,558.5C 866.325,558.719 865.325,558.386 864.5,557.5C 867.228,552.308 869.561,546.975 871.5,541.5 Z"/></g>
<g><path style="opacity:1" fill="#ebecec" d="M 872.5,544.5 C 874.19,546.504 875.524,548.837 876.5,551.5C 874.167,552.833 871.833,552.833 869.5,551.5C 870.788,549.261 871.788,546.928 872.5,544.5 Z"/></g>
<g><path style="opacity:1" fill="#7f7f7e" d="M 651.5,541.5 C 652.822,541.33 653.989,541.663 655,542.5C 656.726,546.953 658.726,551.286 661,555.5C 661.749,556.635 661.583,557.635 660.5,558.5C 659.051,555.222 656.551,553.888 653,554.5C 651.5,554.667 650,554.833 648.5,555C 647.95,556.845 646.95,558.345 645.5,559.5C 645.167,559 644.833,558.5 644.5,558C 647.132,552.598 649.465,547.098 651.5,541.5 Z"/></g>
<g><path style="opacity:1" fill="#eeeeec" d="M 652.5,544.5 C 654.059,546.608 655.392,548.941 656.5,551.5C 654.167,552.833 651.833,552.833 649.5,551.5C 650.788,549.261 651.788,546.928 652.5,544.5 Z"/></g>
<g><path style="opacity:1" fill="#808080" d="M 692.5,541.5 C 696.384,541.024 699.717,542.024 702.5,544.5C 702,544.833 701.5,545.167 701,545.5C 696.696,542.427 693.029,543.094 690,547.5C 689.531,555.454 693.198,558.121 701,555.5C 702.722,555.611 702.888,556.111 701.5,557C 691.426,560.553 686.926,557.053 688,546.5C 689.366,544.638 690.866,542.972 692.5,541.5 Z"/></g>
<g><path style="opacity:1" fill="#848484" d="M 713.5,541.5 C 714.496,541.414 715.329,541.748 716,542.5C 718.361,547.25 720.527,552.083 722.5,557C 720.265,558.645 719.265,557.812 719.5,554.5C 716.102,554.18 712.768,554.513 709.5,555.5C 709.081,556.672 708.415,557.672 707.5,558.5C 707.167,558 706.833,557.5 706.5,557C 708.436,551.629 710.77,546.463 713.5,541.5 Z"/></g>
<g><path style="opacity:1" fill="#f3f3f2" d="M 713.5,545.5 C 716.083,546.985 717.416,549.318 717.5,552.5C 715.5,552.5 713.5,552.5 711.5,552.5C 711.878,550.079 712.545,547.746 713.5,545.5 Z"/></g>
<g><path style="opacity:1" fill="#7e7e7e" d="M 761.5,541.5 C 762.822,541.33 763.989,541.663 765,542.5C 767.029,547.392 769.196,552.226 771.5,557C 771.167,557.5 770.833,558 770.5,558.5C 769.585,557.672 768.919,556.672 768.5,555.5C 765.216,554.343 761.882,554.176 758.5,555C 757.663,556.011 757.33,557.178 757.5,558.5C 756.448,558.649 755.448,558.483 754.5,558C 757.127,552.616 759.461,547.116 761.5,541.5 Z"/></g>
<g><path style="opacity:1" fill="#ededed" d="M 762.5,544.5 C 764.19,546.504 765.524,548.837 766.5,551.5C 764.235,552.647 761.902,552.814 759.5,552C 760.991,549.692 761.991,547.192 762.5,544.5 Z"/></g>
<g><path style="opacity:1" fill="#7d7d7d" d="M 530.5,541.5 C 531.822,541.33 532.989,541.663 534,542.5C 536.167,547.5 538.333,552.5 540.5,557.5C 540.167,557.833 539.833,558.167 539.5,558.5C 538.155,557.653 537.155,556.487 536.5,555C 533.5,554.333 530.5,554.333 527.5,555C 526.663,556.011 526.33,557.178 526.5,558.5C 525.448,558.649 524.448,558.483 523.5,558C 526.25,552.667 528.584,547.167 530.5,541.5 Z"/></g>
<g><path style="opacity:1" fill="#f1f1f1" d="M 531.5,544.5 C 533.19,546.504 534.524,548.837 535.5,551.5C 533.235,552.647 530.902,552.814 528.5,552C 530.202,549.765 531.202,547.265 531.5,544.5 Z"/></g>
<g><path style="opacity:1" fill="#e2e4f6" d="M 252.5,530.5 C 253.345,531.671 254.011,533.005 254.5,534.5C 253.448,534.351 252.448,534.517 251.5,535C 244.167,542.333 236.833,549.667 229.5,557C 226.518,557.498 223.518,557.665 220.5,557.5C 220.5,559.5 220.5,561.5 220.5,563.5C 219.776,560.477 218.776,557.477 217.5,554.5C 221.078,555.589 224.745,555.755 228.5,555C 235.015,548.652 241.348,542.152 247.5,535.5C 244.554,534.345 241.554,534.179 238.5,535C 235.167,538.333 231.833,541.667 228.5,545C 223.5,545.333 218.5,545.667 213.5,546C 212.584,546.278 211.918,546.778 211.5,547.5C 207.265,546.564 202.931,546.231 198.5,546.5C 201.977,545.677 205.644,545.177 209.5,545C 208.944,544.617 208.611,544.117 208.5,543.5C 208.5,543.167 208.5,542.833 208.5,542.5C 214.827,543.182 221.161,543.348 227.5,543C 230.335,538.999 233.668,535.499 237.5,532.5C 242.944,533.108 247.944,532.442 252.5,530.5 Z"/></g>
<g><path style="opacity:1" fill="#30306d" d="M 254.5,534.5 C 255.303,535.423 255.47,536.423 255,537.5C 246.969,545.197 239.302,553.197 232,561.5C 231.502,564.817 231.335,568.15 231.5,571.5C 228.687,571.975 226.687,570.975 225.5,568.5C 223.5,567.167 221.833,565.5 220.5,563.5C 220.5,561.5 220.5,559.5 220.5,557.5C 223.518,557.665 226.518,557.498 229.5,557C 236.833,549.667 244.167,542.333 251.5,535C 252.448,534.517 253.448,534.351 254.5,534.5 Z"/></g>
<g><path style="opacity:1" fill="#308e53" d="M 330.5,528.5 C 330.141,530.371 329.141,531.871 327.5,533C 328.458,534.147 328.125,535.147 326.5,536C 327.451,536.718 327.617,537.551 327,538.5C 324.909,537.5 323.243,538.167 322,540.5C 321.667,540.167 321.333,539.833 321,539.5C 318.076,544.227 314.243,548.727 309.5,553C 310.931,553.465 312.097,554.299 313,555.5C 313.718,554.549 314.551,554.383 315.5,555C 316.437,557.707 317.77,560.207 319.5,562.5C 317.46,565.605 314.626,567.605 311,568.5C 310.805,569.819 310.972,571.153 311.5,572.5C 310.609,571.89 309.609,571.557 308.5,571.5C 305.57,572.299 302.57,572.632 299.5,572.5C 294.922,571.207 293.422,568.207 295,563.5C 306.702,551.631 318.535,539.965 330.5,528.5 Z"/></g>
<g><path style="opacity:1" fill="#e2e4f5" d="M 254.5,534.5 C 256.085,535.533 257.419,536.866 258.5,538.5C 250.181,545.82 242.515,553.82 235.5,562.5C 235.167,562.5 234.833,562.5 234.5,562.5C 233.513,567.305 233.179,572.305 233.5,577.5C 232.833,575.5 232.167,573.5 231.5,571.5C 231.335,568.15 231.502,564.817 232,561.5C 239.302,553.197 246.969,545.197 255,537.5C 255.47,536.423 255.303,535.423 254.5,534.5 Z"/></g>
<g><path style="opacity:1" fill="#2f2a7e" d="M 251.5,563.5 C 250.764,565.229 249.43,566.229 247.5,566.5C 247.901,563.252 248.568,560.085 249.5,557C 251.59,556.732 252.924,557.732 253.5,560C 252.027,560.71 251.36,561.876 251.5,563.5 Z"/></g>
<g><path style="opacity:1" fill="#838383" d="M 432.5,541.5 C 440.545,541.048 444.378,544.714 444,552.5C 443.654,554.848 442.487,556.681 440.5,558C 431.026,560.539 426.526,557.039 427,547.5C 428.36,544.977 430.193,542.977 432.5,541.5 Z"/></g>
<g><path style="opacity:1" fill="#f7f7f6" d="M 433.5,543.5 C 441.391,544.129 443.725,547.962 440.5,555C 432.246,558.081 428.746,555.248 430,546.5C 431.145,545.364 432.312,544.364 433.5,543.5 Z"/></g>
<g><path style="opacity:1" fill="#b5b5b5" d="M 502.5,542.5 C 503.486,546.97 503.819,551.637 503.5,556.5C 506.059,556.198 508.393,556.532 510.5,557.5C 507.833,557.5 505.167,557.5 502.5,557.5C 502.5,552.5 502.5,547.5 502.5,542.5 Z"/></g>
<g><path style="opacity:1" fill="#838383" d="M 578.5,541.5 C 590.312,541.451 593.646,546.617 588.5,557C 578.067,560.884 573.234,557.384 574,546.5C 575.193,544.503 576.693,542.836 578.5,541.5 Z"/></g>
<g><path style="opacity:1" fill="#f8f7f6" d="M 578.5,544.5 C 586.16,542.996 589.327,545.996 588,553.5C 584.685,557.105 581.018,557.439 577,554.5C 574.729,550.697 575.229,547.363 578.5,544.5 Z"/></g>
<g><path style="opacity:1" fill="#757575" d="M 502.5,542.5 C 502.5,547.5 502.5,552.5 502.5,557.5C 505.167,557.5 507.833,557.5 510.5,557.5C 507.955,558.504 504.621,558.837 500.5,558.5C 500.171,552.794 500.505,547.128 501.5,541.5C 502.107,541.624 502.44,541.957 502.5,542.5 Z"/></g>
<g><path style="opacity:1" fill="#828382" d="M 549.5,541.5 C 553.122,540.924 556.122,541.924 558.5,544.5C 557.424,545.656 556.424,545.489 555.5,544C 548.506,543.33 545.673,546.497 547,553.5C 547.833,554.333 548.667,555.167 549.5,556C 552.667,556.252 555.667,556.418 558.5,556.5C 553.373,560.767 548.873,560.1 545,554.5C 543.243,548.825 544.743,544.492 549.5,541.5 Z"/></g>
<g><path style="opacity:1" fill="#787878" d="M 635.5,548.5 C 637.176,547.817 637.843,546.483 637.5,544.5C 638.167,544.5 638.833,544.5 639.5,544.5C 640.712,546.264 640.379,547.93 638.5,549.5C 641.021,551.26 641.854,553.593 641,556.5C 640.184,557.823 639.017,558.489 637.5,558.5C 634.167,558.5 630.833,558.5 627.5,558.5C 627.334,553.156 627.501,547.823 628,542.5C 628.497,544.81 628.663,547.143 628.5,549.5C 631.059,549.802 633.393,549.468 635.5,548.5 Z"/></g>
<g><path style="opacity:1" fill="#f8f8f8" d="M 629.5,551.5 C 632.187,551.336 634.854,551.503 637.5,552C 638.833,553.333 638.833,554.667 637.5,556C 634.854,556.497 632.187,556.664 629.5,556.5C 629.5,554.833 629.5,553.167 629.5,551.5 Z"/></g>
<g><path style="opacity:1" fill="#808080" d="M 808.5,541.5 C 820.204,541.748 823.204,546.915 817.5,557C 808.109,560.593 803.275,557.427 803,547.5C 804.36,544.977 806.193,542.977 808.5,541.5 Z"/></g>
<g><path style="opacity:1" fill="#f6f5f4" d="M 809.5,543.5 C 817.845,543.691 820.178,547.524 816.5,555C 808.3,558.14 804.8,555.306 806,546.5C 807.145,545.364 808.312,544.364 809.5,543.5 Z"/></g>
<g><path style="opacity:1" fill="#383978" d="M 262.5,543.5 C 263.303,544.423 263.47,545.423 263,546.5C 260.492,549.531 257.992,552.531 255.5,555.5C 254.691,557.292 254.191,559.292 254,561.5C 253.292,562.381 252.458,563.047 251.5,563.5C 251.36,561.876 252.027,560.71 253.5,560C 252.924,557.732 251.59,556.732 249.5,557C 248.568,560.085 247.901,563.252 247.5,566.5C 246.362,563.696 246.195,560.696 247,557.5C 251.759,552.234 256.925,547.567 262.5,543.5 Z"/></g>
<g><path style="opacity:1" fill="#252677" d="M 225.5,568.5 C 224.987,566.146 223.821,564.146 222,562.5C 221.51,561.207 221.343,559.873 221.5,558.5C 223.924,558.192 226.257,558.526 228.5,559.5C 230.027,562.66 230.693,565.993 230.5,569.5C 228.784,569.371 227.117,569.038 225.5,568.5 Z"/></g>
<g><path style="opacity:1" fill="#6ba369" d="M 361.5,552.5 C 356.479,564.185 349.479,574.518 340.5,583.5C 341.477,581.179 342.477,578.846 343.5,576.5C 348.836,571.646 353.336,565.979 357,559.5C 356.664,555.856 358.164,553.523 361.5,552.5 Z"/></g>
<g><path style="opacity:1" fill="#313a75" d="M 280.5,554.5 C 281.583,554.539 282.583,554.873 283.5,555.5C 284.663,560.802 284.829,566.136 284,571.5C 283,570.5 282,569.5 281,568.5C 280.501,563.845 280.334,559.179 280.5,554.5 Z"/></g>
<g><path style="opacity:1" fill="#ebeefa" d="M 259.5,541.5 C 260.5,542.167 261.5,542.833 262.5,543.5C 256.925,547.567 251.759,552.234 247,557.5C 246.195,560.696 246.362,563.696 247.5,566.5C 250.101,569.337 250.101,572.17 247.5,575C 243.905,576.073 241.905,574.739 241.5,571C 241.468,569.029 242.302,567.529 244,566.5C 244.173,562.459 244.673,558.459 245.5,554.5C 250.187,550.145 254.854,545.812 259.5,541.5 Z"/></g>
<g><path style="opacity:1" fill="#dde0f4" d="M 255.5,555.5 C 255.337,557.857 255.503,560.19 256,562.5C 256.198,560.618 256.698,558.952 257.5,557.5C 258.208,561.299 259.041,564.965 260,568.5C 258.173,569.659 256.507,570.992 255,572.5C 254.595,576.213 254.595,579.879 255,583.5C 252.963,585.706 250.797,587.706 248.5,589.5C 246.833,588.833 245.167,588.167 243.5,587.5C 245.698,587.88 247.365,587.213 248.5,585.5C 249.492,585.672 250.158,585.338 250.5,584.5C 251.222,584.082 251.722,583.416 252,582.5C 252.594,576.144 252.427,569.811 251.5,563.5C 252.458,563.047 253.292,562.381 254,561.5C 254.191,559.292 254.691,557.292 255.5,555.5 Z"/></g>
<g><path style="opacity:1" fill="#3a386c" d="M 254.5,564.5 C 255.5,564.5 256.5,564.5 257.5,564.5C 257.5,565.5 257.5,566.5 257.5,567.5C 256.5,567.5 255.5,567.5 254.5,567.5C 254.5,566.5 254.5,565.5 254.5,564.5 Z"/></g>
<g><path style="opacity:1" fill="#2e2f73" d="M 267.5,548.5 C 267.082,551.439 265.582,553.772 263,555.5C 262.667,562.5 262.333,569.5 262,576.5C 261.333,577.167 260.667,577.833 260,578.5C 259.667,582.833 259.333,587.167 259,591.5C 255.927,594.188 255.76,597.021 258.5,600C 259.448,600.483 260.448,600.649 261.5,600.5C 260.571,601.315 259.571,602.148 258.5,603C 259.252,603.671 259.586,604.504 259.5,605.5C 253.461,601.795 249.794,596.461 248.5,589.5C 250.797,587.706 252.963,585.706 255,583.5C 254.595,579.879 254.595,576.213 255,572.5C 256.507,570.992 258.173,569.659 260,568.5C 259.041,564.965 258.208,561.299 257.5,557.5C 259.557,553.933 262.223,550.766 265.5,548C 266.437,547.308 267.103,547.475 267.5,548.5 Z"/></g>
<g><path style="opacity:1" fill="#262878" d="M 250.5,584.5 C 250.158,585.338 249.492,585.672 248.5,585.5C 247.417,585.539 246.417,585.873 245.5,586.5C 244.738,585.372 244.071,584.205 243.5,583C 240.992,582.346 238.826,581.179 237,579.5C 236.667,579.833 236.333,580.167 236,580.5C 234.965,575.617 236.299,574.617 240,577.5C 242,576.167 244,576.167 246,577.5C 247.512,576.743 248.846,575.743 250,574.5C 250.498,577.817 250.665,581.15 250.5,584.5 Z"/></g>
<g><path style="opacity:1" fill="#e1e4f5" d="M 271.5,549.5 C 273.933,549.273 275.599,550.273 276.5,552.5C 275.343,560.99 275.176,569.657 276,578.5C 279.97,580.686 280.47,583.52 277.5,587C 276.207,587.49 274.873,587.657 273.5,587.5C 269.946,585.018 269.78,582.351 273,579.5C 274.1,569.245 273.6,559.245 271.5,549.5 Z"/></g>
<g><path style="opacity:1" fill="#323270" d="M 258.5,538.5 C 259.11,539.391 259.443,540.391 259.5,541.5C 254.854,545.812 250.187,550.145 245.5,554.5C 244.673,558.459 244.173,562.459 244,566.5C 242.302,567.529 241.468,569.029 241.5,571C 241.905,574.739 243.905,576.073 247.5,575C 250.101,572.17 250.101,569.337 247.5,566.5C 249.43,566.229 250.764,565.229 251.5,563.5C 252.427,569.811 252.594,576.144 252,582.5C 251.722,583.416 251.222,584.082 250.5,584.5C 250.665,581.15 250.498,577.817 250,574.5C 248.846,575.743 247.512,576.743 246,577.5C 244,576.167 242,576.167 240,577.5C 236.299,574.617 234.965,575.617 236,580.5C 236.333,580.167 236.667,579.833 237,579.5C 238.826,581.179 240.992,582.346 243.5,583C 244.071,584.205 244.738,585.372 245.5,586.5C 246.417,585.873 247.417,585.539 248.5,585.5C 247.365,587.213 245.698,587.88 243.5,587.5C 237.87,586.537 234.537,583.204 233.5,577.5C 233.179,572.305 233.513,567.305 234.5,562.5C 233.732,567.221 234.899,571.221 238,574.5C 239.03,572.412 239.863,570.245 240.5,568C 239.978,567.05 239.311,566.216 238.5,565.5C 240.691,565.5 242.357,564.166 243.5,561.5C 242.855,560.354 242.022,559.354 241,558.5C 239.549,560.464 237.716,561.797 235.5,562.5C 242.515,553.82 250.181,545.82 258.5,538.5 Z"/></g>
<g><path style="opacity:1" fill="#3a3b6f" d="M 243.5,569.5 C 244.978,569.238 246.311,569.571 247.5,570.5C 246.68,572.111 245.346,572.778 243.5,572.5C 243.5,571.5 243.5,570.5 243.5,569.5 Z"/></g>
<g><path style="opacity:1" fill="#2a2877" d="M 234.5,562.5 C 234.833,562.5 235.167,562.5 235.5,562.5C 237.716,561.797 239.549,560.464 241,558.5C 242.022,559.354 242.855,560.354 243.5,561.5C 242.357,564.166 240.691,565.5 238.5,565.5C 239.311,566.216 239.978,567.05 240.5,568C 239.863,570.245 239.03,572.412 238,574.5C 234.899,571.221 233.732,567.221 234.5,562.5 Z"/></g>
<g><path style="opacity:1" fill="#3b3f76" d="M 273.5,581.5 C 274.5,581.5 275.5,581.5 276.5,581.5C 276.5,582.833 276.5,584.167 276.5,585.5C 275.5,585.5 274.5,585.5 273.5,585.5C 273.5,584.167 273.5,582.833 273.5,581.5 Z"/></g>
<g><path style="opacity:1" fill="#343a79" d="M 276.5,552.5 C 277.117,552.611 277.617,552.944 278,553.5C 278.333,559.167 278.667,564.833 279,570.5C 280.351,572.019 281.851,573.352 283.5,574.5C 286.766,583.872 284.432,591.205 276.5,596.5C 277.171,595.153 277.171,593.986 276.5,593C 277.448,592.517 278.448,592.351 279.5,592.5C 279.67,591.178 279.337,590.011 278.5,589C 276.618,588.802 274.952,588.302 273.5,587.5C 274.873,587.657 276.207,587.49 277.5,587C 280.47,583.52 279.97,580.686 276,578.5C 275.176,569.657 275.343,560.99 276.5,552.5 Z"/></g>
<g><path style="opacity:1" fill="#2c317c" d="M 270.5,549.5 C 270.833,549.5 271.167,549.5 271.5,549.5C 273.6,559.245 274.1,569.245 273,579.5C 269.78,582.351 269.946,585.018 273.5,587.5C 274.952,588.302 276.618,588.802 278.5,589C 279.337,590.011 279.67,591.178 279.5,592.5C 278.448,592.351 277.448,592.517 276.5,593C 277.171,593.986 277.171,595.153 276.5,596.5C 273.336,599.833 270.336,603.333 267.5,607C 264.193,609.336 261.527,608.836 259.5,605.5C 259.586,604.504 259.252,603.671 258.5,603C 259.571,602.148 260.571,601.315 261.5,600.5C 265.271,597.78 265.437,594.78 262,591.5C 261.333,587.833 261.333,584.167 262,580.5C 262.689,579.643 263.522,578.977 264.5,578.5C 265.331,571.189 265.831,563.856 266,556.5C 267.75,554.266 269.25,551.932 270.5,549.5 Z"/></g>
<g><path style="opacity:1" fill="#329155" d="M 311.5,572.5 C 312.268,573.263 312.768,574.263 313,575.5C 313.667,574.167 314.333,574.167 315,575.5C 316,574.5 317,573.5 318,572.5C 319.333,574.5 320.667,576.5 322,578.5C 322.414,578.043 322.914,577.709 323.5,577.5C 326.461,578.183 326.795,579.016 324.5,580C 326,581.167 327.5,582.333 329,583.5C 330.016,582.366 330.683,582.699 331,584.5C 333.805,585.556 336.638,585.556 339.5,584.5C 334.872,590.463 329.872,596.13 324.5,601.5C 322.453,601.511 320.453,601.844 318.5,602.5C 317.328,602.081 316.328,601.415 315.5,600.5C 315.089,601.262 314.923,602.262 315,603.5C 311.123,599.649 309.623,594.983 310.5,589.5C 310.562,586.387 311.229,583.554 312.5,581C 312.249,579.05 311.582,576.884 310.5,574.5C 310.863,573.817 311.196,573.15 311.5,572.5 Z"/></g>
<g><path style="opacity:1" fill="#ccf1d6" d="M 308.5,571.5 C 308.333,583.171 308.5,594.838 309,606.5C 310.848,609.041 313.348,610.041 316.5,609.5C 313.248,611.147 310.414,610.48 308,607.5C 307.667,596.833 307.333,586.167 307,575.5C 304.622,574.033 302.122,573.033 299.5,572.5C 302.57,572.632 305.57,572.299 308.5,571.5 Z"/></g>
<g><path style="opacity:1" fill="#e1e5f5" d="M 267.5,548.5 C 268.635,549.103 269.635,549.436 270.5,549.5C 269.25,551.932 267.75,554.266 266,556.5C 265.831,563.856 265.331,571.189 264.5,578.5C 263.522,578.977 262.689,579.643 262,580.5C 261.333,584.167 261.333,587.833 262,591.5C 265.437,594.78 265.271,597.78 261.5,600.5C 260.448,600.649 259.448,600.483 258.5,600C 255.76,597.021 255.927,594.188 259,591.5C 259.333,587.167 259.667,582.833 260,578.5C 260.667,577.833 261.333,577.167 262,576.5C 262.333,569.5 262.667,562.5 263,555.5C 265.582,553.772 267.082,551.439 267.5,548.5 Z"/></g>
<g><path style="opacity:1" fill="#414475" d="M 259.5,594.5 C 262.861,595.203 263.194,596.537 260.5,598.5C 258.358,597.563 258.024,596.23 259.5,594.5 Z"/></g>
<g><path style="opacity:1" fill="#328655" d="M 308.5,571.5 C 309.609,571.557 310.609,571.89 311.5,572.5C 311.196,573.15 310.863,573.817 310.5,574.5C 311.582,576.884 312.249,579.05 312.5,581C 311.229,583.554 310.562,586.387 310.5,589.5C 309.623,594.983 311.123,599.649 315,603.5C 314.923,602.262 315.089,601.262 315.5,600.5C 316.328,601.415 317.328,602.081 318.5,602.5C 320.453,601.844 322.453,601.511 324.5,601.5C 322.167,604.5 319.5,607.167 316.5,609.5C 313.348,610.041 310.848,609.041 309,606.5C 308.5,594.838 308.333,583.171 308.5,571.5 Z"/></g>
</svg>
